<svg width="112" height="296" viewBox="0 0 112 296" fill="none" xmlns="http://www.w3.org/2000/svg">
<circle cx="4" cy="228" r="4" fill="#EBE5FC"/>
<circle cx="4" cy="260" r="4" fill="#EBE5FC"/>
<circle cx="4" cy="292" r="4" fill="#EBE5FC"/>
<circle cx="4" cy="196" r="4" fill="#EBE5FC"/>
<circle cx="4" cy="164" r="4" fill="#EBE5FC"/>
<circle cx="60" cy="228" r="4" fill="#EBE5FC"/>
<circle cx="60" cy="260" r="4" fill="#EBE5FC"/>
<circle cx="60" cy="292" r="4" fill="#EBE5FC"/>
<circle cx="60" cy="196" r="4" fill="#EBE5FC"/>
<circle cx="60" cy="164" r="4" fill="#EBE5FC"/>
<circle cx="32" cy="228" r="4" fill="#EBE5FC"/>
<circle cx="32" cy="260" r="4" fill="#EBE5FC"/>
<circle cx="32" cy="292" r="4" fill="#EBE5FC"/>
<circle cx="32" cy="196" r="4" fill="#EBE5FC"/>
<circle cx="32" cy="164" r="4" fill="#EBE5FC"/>
<circle cx="88" cy="228" r="4" fill="#EBE5FC"/>
<circle cx="88" cy="260" r="4" fill="#EBE5FC"/>
<circle cx="88" cy="292" r="4" fill="#EBE5FC"/>
<circle cx="88" cy="196" r="4" fill="#EBE5FC"/>
<circle cx="88" cy="164" r="4" fill="#EBE5FC"/>
<circle cx="4" cy="68" r="4" fill="#EBE5FC"/>
<circle cx="4" cy="100" r="4" fill="#EBE5FC"/>
<circle cx="4" cy="132" r="4" fill="#EBE5FC"/>
<circle cx="4" cy="36" r="4" fill="#EBE5FC"/>
<circle cx="4" cy="4" r="4" fill="#EBE5FC"/>
<circle cx="60" cy="68" r="4" fill="#EBE5FC"/>
<circle cx="60" cy="100" r="4" fill="#EBE5FC"/>
<circle cx="60" cy="132" r="4" fill="#EBE5FC"/>
<circle cx="60" cy="36" r="4" fill="#EBE5FC"/>
<circle cx="60" cy="4" r="4" fill="#EBE5FC"/>
<circle cx="32" cy="68" r="4" fill="#EBE5FC"/>
<circle cx="32" cy="100" r="4" fill="#EBE5FC"/>
<circle cx="32" cy="132" r="4" fill="#EBE5FC"/>
<circle cx="32" cy="36" r="4" fill="#EBE5FC"/>
<circle cx="32" cy="4" r="4" fill="#EBE5FC"/>
<circle cx="88" cy="68" r="4" fill="#EBE5FC"/>
<circle cx="88" cy="100" r="4" fill="#EBE5FC"/>
<circle cx="88" cy="132" r="4" fill="#EBE5FC"/>
<circle cx="88" cy="36" r="4" fill="#EBE5FC"/>
<circle cx="88" cy="4" r="4" fill="#EBE5FC"/>
</svg>
